{"title":"From Dusk Till Dawn The Series S01E05 HDTV x264 AAC [GWC].mp4","uid":9925967,"size":144874957,"categoryP":"video","categoryS":"tv_shows","magnet":"?xt=urn:btih:3ac4f08efcf6041bdfe8ccdc4e6f1971336cf2c3&amp;dn=From+Dusk+Till+Dawn+The+Series+S01E05+HDTV+x264+AAC+%5BGWC%5D.mp4&amp;tr=udp%3A%2F%2Ftracker.openbittorrent.com%3A80&amp;tr=udp%3A%2F%2Fopen.demonii.com%3A1337&amp;tr=udp%3A%2F%2Ftracker.coppersurfer.tk%3A6969&amp;tr=udp%3A%2F%2Fexodus.desync.com%3A6969","seeders":1,"leechers":0,"uploader":"canc232","files":1,"time":1397066865,"description":"From Dusk Till Dawn The Series S01E05 HDTV x264 AAC [GWC]\n\n\nSTORYLINE :\nA Texas Ranger is in hot pursuit of the infamous Gecko brothers\n\n\nSCREENS : &lt;a href=&quot;\nhttp://i.imgur.com/RSV7kqn.jpg&quot; rel=&quot;nofollow&quot; target=&quot;_NEW&quot;&gt;\nhttp://i.imgur.com/RSV7kqn.jpg&lt;/a&gt; &lt;a href=&quot;\nhttp://i.imgur.com/rGRV6WP.jpg&quot; rel=&quot;nofollow&quot; target=&quot;_NEW&quot;&gt;\nhttp://i.imgur.com/rGRV6WP.jpg&lt;/a&gt; &lt;a href=&quot;\nhttp://i.imgur.com/3TG63aY.jpg&quot; rel=&quot;nofollow&quot; target=&quot;_NEW&quot;&gt;\nhttp://i.imgur.com/3TG63aY.jpg&lt;/a&gt;\n\n\nMEDIA INFO :\nGeneral \nFormat : MPEG-4 \nFormat profile : Base Media \nFile size : 138 MiB \nDuration : 44mn 44s \nOverall bit rate mode : Variable \nOverall bit rate : 432 Kbps \n\nVideo \nFormat : AVC \nFormat profile : &lt;a class=&quot;__cf_email__&quot; href=&quot;/cdn-cgi/l/email-protection&quot; data-cfemail=&quot;e0a8898788a0acd3ced0&quot;&gt;[email&amp;#160;protected]&lt;/a&gt;&lt;script cf-hash='f9e31' type=&quot;text/javascript&quot;&gt;\n/* &lt;![CDATA[ */!function(){try{var t=&quot;currentScript&quot;in document?document.currentScript:function(){for(var t=document.getElementsByTagName(&quot;script&quot;),e=t.length;e--;)if(t[e].getAttribute(&quot;cf-hash&quot;))return t[e]}();if(t&amp;&amp;t.previousSibling){var e,r,n,i,c=t.previousSibling,a=c.getAttribute(&quot;data-cfemail&quot;);if(a){for(e=&quot;&quot;,r=parseInt(a.substr(0,2),16),n=2;a.length-n;n+=2)i=parseInt(a.substr(n,2),16)^r,e+=String.fromCharCode(i);e=document.createTextNode(e),c.parentNode.replaceChild(e,c)}}}catch(u){}}();/* ]]&gt; */&lt;/script&gt; \nFormat settings, CABAC : Yes \nFormat settings, ReFrames : 4 frames \nDuration : 44mn 44s \nBit rate : 369 Kbps \nMaximum bit rate : 1 662 Kbps \nWidth : 720 pixels \nHeight : 404 pixels \nDisplay aspect ratio : 16:9 \nFrame rate : 23.976 fps \nStream size : 118 MiB (85%) \nTitle : From Dusk Till Dawn The Series S01E05 HDTV x264 AAC [GWC] \nWriting library : x264 core \n\nAudio \nFormat : AAC \nFormat profile : HE-AAC / LC \nDuration : 44mn 44s \nBit rate mode : Variable \nChannel(s) : 2 channels \nSampling rate : 48.0 KHz / 24.0 KHz \nStream size : 19.2 MiB (14%) \nLanguage : English ","torrent":{"xt":"urn:btih:3ac4f08efcf6041bdfe8ccdc4e6f1971336cf2c3","amp;dn":"From+Dusk+Till+Dawn+The+Series+S01E05+HDTV+x264+AAC+%5BGWC%5D.mp4","amp;tr":["udp%3A%2F%2Ftracker.openbittorrent.com%3A80","udp%3A%2F%2Fopen.demonii.com%3A1337","udp%3A%2F%2Ftracker.coppersurfer.tk%3A6969","udp%3A%2F%2Fexodus.desync.com%3A6969"],"infoHash":"3ac4f08efcf6041bdfe8ccdc4e6f1971336cf2c3","infoHashBuffer":{"type":"Buffer","data":[58,196,240,142,252,246,4,27,223,232,204,220,78,111,25,113,51,108,242,195]},"announce":[],"urlList":[]}}